<svg xmlns="http://www.w3.org/2000/svg" xmlns:xlink="http://www.w3.org/1999/xlink" width="228" zoomAndPan="magnify" viewBox="0 0 171 30.000001" height="40" preserveAspectRatio="xMidYMid meet" version="1.0"><defs><g/></defs><g fill="#e9ae29" fill-opacity="1"><g transform="translate(22.850077, 21.435483)"><g><path d="M 5.234375 -13.09375 C 7.035156 -13.09375 8.445312 -12.539062 9.46875 -11.4375 C 10.488281 -10.34375 11 -8.769531 11 -6.71875 C 11 -5.257812 10.722656 -4.003906 10.171875 -2.953125 C 9.628906 -1.910156 8.859375 -1.117188 7.859375 -0.578125 C 6.867188 -0.046875 5.726562 0.21875 4.4375 0.21875 C 3.75 0.21875 3.09375 0.144531 2.46875 0 C 1.84375 -0.15625 1.304688 -0.375 0.859375 -0.65625 L 1.96875 -2.84375 C 2.59375 -2.414062 3.394531 -2.203125 4.375 -2.203125 C 5.46875 -2.203125 6.332031 -2.523438 6.96875 -3.171875 C 7.601562 -3.816406 7.945312 -4.742188 8 -5.953125 C 7.226562 -5.179688 6.160156 -4.796875 4.796875 -4.796875 C 3.972656 -4.796875 3.222656 -4.960938 2.546875 -5.296875 C 1.878906 -5.628906 1.347656 -6.097656 0.953125 -6.703125 C 0.566406 -7.304688 0.375 -8.007812 0.375 -8.8125 C 0.375 -9.664062 0.585938 -10.414062 1.015625 -11.0625 C 1.441406 -11.71875 2.023438 -12.21875 2.765625 -12.5625 C 3.503906 -12.914062 4.328125 -13.09375 5.234375 -13.09375 Z M 5.46875 -7.03125 C 6.113281 -7.03125 6.640625 -7.207031 7.046875 -7.5625 C 7.460938 -7.925781 7.671875 -8.390625 7.671875 -8.953125 C 7.671875 -9.515625 7.46875 -9.972656 7.0625 -10.328125 C 6.664062 -10.691406 6.117188 -10.875 5.421875 -10.875 C 4.785156 -10.875 4.269531 -10.703125 3.875 -10.359375 C 3.476562 -10.015625 3.28125 -9.546875 3.28125 -8.953125 C 3.28125 -8.367188 3.476562 -7.898438 3.875 -7.546875 C 4.269531 -7.203125 4.800781 -7.03125 5.46875 -7.03125 Z M 5.46875 -7.03125 "/></g></g></g><g fill="#e9ae29" fill-opacity="1"><g transform="translate(35.369294, 21.435483)"><g><path d="M 10 -2.765625 L 4.03125 -2.765625 L 2.890625 0 L -0.171875 0 L 5.578125 -12.875 L 8.515625 -12.875 L 14.265625 0 L 11.140625 0 Z M 9.0625 -5.015625 L 7.03125 -9.953125 L 4.984375 -5.015625 Z M 9.0625 -5.015625 "/></g></g></g><g fill="#e9ae29" fill-opacity="1"><g transform="translate(50.259963, 21.435483)"><g><path d="M 4.1875 -10.453125 L 0.078125 -10.453125 L 0.078125 -12.875 L 11.296875 -12.875 L 11.296875 -10.453125 L 7.171875 -10.453125 L 7.171875 0 L 4.1875 0 Z M 4.1875 -10.453125 "/></g></g></g><g fill="#e9ae29" fill-opacity="1"><g transform="translate(62.429899, 21.435483)"><g><path d="M 13.328125 -12.875 L 13.328125 0 L 10.359375 0 L 10.359375 -5.28125 L 4.5 -5.28125 L 4.5 0 L 1.53125 0 L 1.53125 -12.875 L 4.5 -12.875 L 4.5 -7.796875 L 10.359375 -7.796875 L 10.359375 -12.875 Z M 13.328125 -12.875 "/></g></g></g><g fill="#e9ae29" fill-opacity="1"><g transform="translate(78.092668, 21.435483)"><g><path d="M 10 -2.765625 L 4.03125 -2.765625 L 2.890625 0 L -0.171875 0 L 5.578125 -12.875 L 8.515625 -12.875 L 14.265625 0 L 11.140625 0 Z M 9.0625 -5.015625 L 7.03125 -9.953125 L 4.984375 -5.015625 Z M 9.0625 -5.015625 "/></g></g></g><g fill="#e9ae29" fill-opacity="1"><g transform="translate(92.98334, 21.435483)"><g><path d="M 10.21875 -6.640625 L 12.953125 -6.640625 L 12.953125 -1.421875 C 12.253906 -0.890625 11.441406 -0.484375 10.515625 -0.203125 C 9.597656 0.078125 8.675781 0.21875 7.75 0.21875 C 6.40625 0.21875 5.195312 -0.0625 4.125 -0.625 C 3.0625 -1.195312 2.226562 -1.988281 1.625 -3 C 1.019531 -4.019531 0.71875 -5.164062 0.71875 -6.4375 C 0.71875 -7.707031 1.019531 -8.847656 1.625 -9.859375 C 2.226562 -10.878906 3.070312 -11.671875 4.15625 -12.234375 C 5.238281 -12.804688 6.453125 -13.09375 7.796875 -13.09375 C 8.921875 -13.09375 9.941406 -12.898438 10.859375 -12.515625 C 11.785156 -12.140625 12.5625 -11.59375 13.1875 -10.875 L 11.28125 -9.109375 C 10.351562 -10.078125 9.238281 -10.5625 7.9375 -10.5625 C 7.125 -10.5625 6.394531 -10.390625 5.75 -10.046875 C 5.113281 -9.703125 4.617188 -9.21875 4.265625 -8.59375 C 3.910156 -7.96875 3.734375 -7.25 3.734375 -6.4375 C 3.734375 -5.632812 3.910156 -4.921875 4.265625 -4.296875 C 4.617188 -3.671875 5.109375 -3.179688 5.734375 -2.828125 C 6.367188 -2.484375 7.09375 -2.3125 7.90625 -2.3125 C 8.769531 -2.3125 9.539062 -2.5 10.21875 -2.875 Z M 10.21875 -6.640625 "/></g></g></g><g fill="#e9ae29" fill-opacity="1"><g transform="translate(107.965934, 21.435483)"><g><path d="M 11.5 -2.390625 L 11.5 0 L 1.53125 0 L 1.53125 -12.875 L 11.25 -12.875 L 11.25 -10.484375 L 4.484375 -10.484375 L 4.484375 -7.6875 L 10.46875 -7.6875 L 10.46875 -5.375 L 4.484375 -5.375 L 4.484375 -2.390625 Z M 11.5 -2.390625 "/></g></g></g><g fill="#e9ae29" fill-opacity="1"><g transform="translate(121.110189, 21.435483)"><g><path d="M 7.25 0.21875 C 5.40625 0.21875 3.972656 -0.285156 2.953125 -1.296875 C 1.929688 -2.316406 1.421875 -3.773438 1.421875 -5.671875 L 1.421875 -12.875 L 4.390625 -12.875 L 4.390625 -5.78125 C 4.390625 -3.46875 5.347656 -2.3125 7.265625 -2.3125 C 8.191406 -2.3125 8.898438 -2.585938 9.390625 -3.140625 C 9.890625 -3.703125 10.140625 -4.582031 10.140625 -5.78125 L 10.140625 -12.875 L 13.078125 -12.875 L 13.078125 -5.671875 C 13.078125 -3.773438 12.5625 -2.316406 11.53125 -1.296875 C 10.507812 -0.285156 9.082031 0.21875 7.25 0.21875 Z M 7.25 0.21875 "/></g></g></g><g fill="#e9ae29" fill-opacity="1"><g transform="translate(136.405295, 21.435483)"><g><path d="M 5.75 0.21875 C 4.738281 0.21875 3.753906 0.0820312 2.796875 -0.1875 C 1.847656 -0.46875 1.085938 -0.828125 0.515625 -1.265625 L 1.53125 -3.515625 C 2.082031 -3.109375 2.738281 -2.78125 3.5 -2.53125 C 4.257812 -2.289062 5.019531 -2.171875 5.78125 -2.171875 C 6.625 -2.171875 7.242188 -2.296875 7.640625 -2.546875 C 8.046875 -2.796875 8.25 -3.128906 8.25 -3.546875 C 8.25 -3.859375 8.128906 -4.113281 7.890625 -4.3125 C 7.660156 -4.507812 7.359375 -4.671875 6.984375 -4.796875 C 6.609375 -4.921875 6.101562 -5.054688 5.46875 -5.203125 C 4.476562 -5.429688 3.671875 -5.660156 3.046875 -5.890625 C 2.421875 -6.128906 1.882812 -6.503906 1.4375 -7.015625 C 0.988281 -7.535156 0.765625 -8.222656 0.765625 -9.078125 C 0.765625 -9.828125 0.96875 -10.503906 1.375 -11.109375 C 1.78125 -11.722656 2.390625 -12.207031 3.203125 -12.5625 C 4.023438 -12.914062 5.023438 -13.09375 6.203125 -13.09375 C 7.023438 -13.09375 7.828125 -12.992188 8.609375 -12.796875 C 9.390625 -12.597656 10.078125 -12.316406 10.671875 -11.953125 L 9.75 -9.6875 C 8.5625 -10.363281 7.367188 -10.703125 6.171875 -10.703125 C 5.335938 -10.703125 4.722656 -10.566406 4.328125 -10.296875 C 3.929688 -10.023438 3.734375 -9.671875 3.734375 -9.234375 C 3.734375 -8.785156 3.960938 -8.453125 4.421875 -8.234375 C 4.878906 -8.023438 5.582031 -7.816406 6.53125 -7.609375 C 7.507812 -7.378906 8.3125 -7.144531 8.9375 -6.90625 C 9.5625 -6.675781 10.097656 -6.3125 10.546875 -5.8125 C 10.992188 -5.3125 11.21875 -4.628906 11.21875 -3.765625 C 11.21875 -3.035156 11.007812 -2.363281 10.59375 -1.75 C 10.1875 -1.144531 9.570312 -0.664062 8.75 -0.3125 C 7.925781 0.0390625 6.925781 0.21875 5.75 0.21875 Z M 5.75 0.21875 "/></g></g></g></svg>